<?xml version="1.0" encoding="utf-8"?>
<!-- Generator: Adobe Illustrator 16.0.3, SVG Export Plug-In . SVG Version: 6.00 Build 0)  -->
<!DOCTYPE svg PUBLIC "-//W3C//DTD SVG 1.1//EN" "http://www.w3.org/Graphics/SVG/1.1/DTD/svg11.dtd">
<svg version="1.1" id="Layer_1" xmlns="http://www.w3.org/2000/svg" xmlns:xlink="http://www.w3.org/1999/xlink" x="0px" y="0px"
	 width="595.275px" height="697.227px" viewBox="0.002 72.331 595.275 697.227"
	 enable-background="new 0.002 72.331 595.275 697.227" xml:space="preserve">
<g>
	<path d="M320.498,248.68c0-5.642-4.57-10.213-10.213-10.213H114.484c-5.642,0-10.213,4.571-10.213,10.213
		c0,5.642,4.572,10.213,10.213,10.213h195.801C315.927,258.893,320.498,254.322,320.498,248.68"/>
	<path fill="#FFC612" d="M370.082,283.138c1.994,1.994,4.607,2.991,7.224,2.991c2.61,0,5.226-0.997,7.218-2.991l54.471-54.471
		c3.99-3.99,3.99-10.456,0-14.444c-3.986-3.987-10.451-3.987-14.441,0l-47.246,47.25l-13.208-13.206
		c-3.987-3.987-10.453-3.987-14.442,0c-3.99,3.99-3.99,10.456,0,14.444L370.082,283.138z"/>
	<path d="M320.498,439.328c0-5.646-4.57-10.215-10.213-10.215H114.484c-5.642,0-10.213,4.568-10.213,10.215
		c0,5.641,4.572,10.213,10.213,10.213h195.801C315.927,449.541,320.498,444.968,320.498,439.328"/>
	<path fill="#FFC612" d="M370.082,473.787c1.994,1.992,4.607,2.988,7.224,2.988c2.61,0,5.226-0.996,7.218-2.988l54.471-54.472
		c3.99-3.99,3.99-10.456,0-14.444c-3.986-3.987-10.451-3.987-14.441,0l-47.246,47.25l-13.208-13.207
		c-3.987-3.986-10.453-3.986-14.442,0c-3.99,3.99-3.99,10.457,0,14.445L370.082,473.787z"/>
	<path d="M320.498,621.708c0-5.645-4.57-10.213-10.213-10.213h-97.903c-5.639,0-10.213,4.568-10.213,10.213
		c0,5.641,4.575,10.213,10.213,10.213h97.903C315.927,631.921,320.498,627.349,320.498,621.708"/>
	<path fill="#FFC612" d="M370.082,669.041c1.994,1.992,4.607,2.986,7.224,2.986c2.61,0,5.226-0.994,7.218-2.986l54.471-54.471
		c3.99-3.992,3.99-10.459,0-14.445c-3.986-3.986-10.451-3.986-14.441,0l-47.246,47.25l-13.208-13.205
		c-3.987-3.988-10.453-3.988-14.442,0c-3.99,3.986-3.99,10.451,0,14.443L370.082,669.041z"/>
	<path d="M325.557,333.791H114.484c-5.644,0-10.213,4.571-10.213,10.213c0,5.643,4.569,10.213,10.213,10.213h211.073
		c5.639,0,10.214-4.57,10.214-10.213C335.771,338.362,331.195,333.791,325.557,333.791"/>
	<path d="M356.197,316.769v54.472c0,5.642,4.569,10.213,10.213,10.213h54.471c5.641,0,10.213-4.571,10.213-10.213v-54.472
		c0-5.642-4.572-10.213-10.213-10.213H366.41C360.767,306.555,356.197,311.126,356.197,316.769 M376.623,326.981h34.045v34.044
		h-34.045V326.981z"/>
	<path d="M325.557,524.343H114.484c-5.644,0-10.213,4.57-10.213,10.215c0,5.643,4.569,10.213,10.213,10.213h211.073
		c5.639,0,10.214-4.57,10.214-10.213C335.771,528.914,331.195,524.343,325.557,524.343"/>
	<path d="M356.197,507.32v54.471c0,5.643,4.569,10.213,10.213,10.213h54.471c5.641,0,10.213-4.57,10.213-10.213V507.32
		c0-5.643-4.572-10.215-10.213-10.215H366.41C360.767,497.107,356.197,501.677,356.197,507.32 M376.623,517.533h34.045v34.045
		h-34.045V517.533z"/>
	<path d="M584.601,548.294c5.895,0,10.676-4.779,10.676-10.674V97.232c0-13.731-11.172-24.901-24.9-24.901h-469.5
		c-13.729,0-24.903,11.17-24.903,24.901v52.601H24.902c-13.729,0-24.9,11.17-24.9,24.901v423.494
		c0,10.631,5.663,24.316,13.176,31.84l53.053,53.125c2.083,2.088,4.816,3.127,7.551,3.127c2.729,0,5.458-1.037,7.541-3.119
		c4.17-4.162,4.175-10.922,0.01-15.092L36.414,623.13h106.26c1.928,0,3.556,1.627,3.556,3.555v106.412l-26.536-26.574
		c-4.167-4.172-10.923-4.174-15.091-0.008c-4.173,4.164-4.179,10.922-0.011,15.092l34.701,34.754
		c7.516,7.521,21.201,13.197,31.836,13.197H494.4c13.729,0,24.902-11.172,24.902-24.9v-52.602h51.072
		c13.729,0,24.902-11.168,24.902-24.898v-72.613c0-5.896-4.779-10.674-10.674-10.674s-10.674,4.775-10.674,10.674v72.615
		c0,1.928-1.629,3.553-3.557,3.553h-51.07v-410.56c0-5.896-4.781-10.672-10.674-10.672c-5.895,0-10.674,4.777-10.674,10.672v484.499
		c0,1.93-1.627,3.561-3.557,3.561H171.13c-1.056,0-2.274-0.166-3.556-0.447V626.681c0-13.729-11.171-24.9-24.903-24.9H21.791
		c-0.279-1.283-0.444-2.502-0.444-3.555V174.733c0-1.928,1.628-3.557,3.556-3.557H494.4c1.93,0,3.557,1.628,3.557,3.557v34.197
		c0,5.895,4.779,10.672,10.674,10.672s10.674-4.777,10.674-10.672v-34.197c0-13.729-11.172-24.901-24.902-24.901H97.321v-52.6
		c0-1.928,1.627-3.557,3.556-3.557h469.5c1.928,0,3.555,1.628,3.555,3.557v440.393C573.931,543.515,578.708,548.294,584.601,548.294
		"/>
</g>
</svg>
